<svg width="30" height="30" viewBox="0 0 30 30" fill="none" xmlns="http://www.w3.org/2000/svg">
<path d="M21.9132 22.7424C21.3195 24.3211 20.5702 25.7066 19.6606 26.7339C21.753 25.9045 23.6097 24.4814 24.9527 22.7424H21.9132Z" fill="white"/>
<path d="M15.7917 21.164H20.7681C21.2441 19.5429 21.5599 17.7286 21.6352 15.7917H15.7917V21.164V21.164Z" fill="white"/>
<path d="M20.2168 22.7424H15.7917V27.5633C17.5683 27.1298 19.147 25.3107 20.2168 22.7424Z" fill="white"/>
<path d="M15.7917 2.43652V7.25735H20.2168C19.147 4.68908 17.5683 2.87004 15.7917 2.43652Z" fill="white"/>
<path d="M20.7681 8.83594H15.7917V14.2082H21.6399C21.5598 12.276 21.2441 10.4571 20.7681 8.83594Z" fill="white"/>
<path d="M26.0604 8.83594H22.4648C22.8984 10.457 23.1765 12.2713 23.2141 14.2082H27.6391C27.4837 12.276 26.9323 10.4571 26.0604 8.83594Z" fill="white"/>
<path d="M19.7031 3.26587C20.6126 4.33088 21.3619 5.67392 21.9557 7.25736H25.0377C23.6145 5.51843 21.7955 4.09528 19.7031 3.26587Z" fill="white"/>
<path d="M22.427 21.164H26.0226C26.9321 19.5429 27.4834 17.7286 27.6013 15.7917H23.214C23.1385 17.7239 22.8605 19.5052 22.427 21.164Z" fill="white"/>
<path d="M7.57323 21.164C7.13971 19.5429 6.86162 17.7286 6.82393 15.7917H2.39893C2.51673 17.7286 3.07278 19.5429 3.97763 21.164H7.57323Z" fill="white"/>
<path d="M14.2085 15.7917H8.36499C8.4451 17.7286 8.71839 19.5429 9.23209 21.164H14.2085V15.7917Z" fill="white"/>
<path d="M10.2971 26.7339C9.38756 25.6689 8.63826 24.3259 8.04452 22.7424H4.96729C6.3857 24.4814 8.20474 25.9045 10.2971 26.7339Z" fill="white"/>
<path d="M9.78345 7.25735H14.2085V2.43652C12.4319 2.87004 10.8532 4.68908 9.78345 7.25735Z" fill="white"/>
<path d="M2.39893 14.2082H6.82393C6.86162 12.2713 7.13964 10.4948 7.57323 8.83594H3.93995C3.06811 10.4571 2.5168 12.276 2.39893 14.2082Z" fill="white"/>
<path d="M14.2085 27.5635V22.7427H9.78345C10.8532 25.3109 12.4319 27.1299 14.2085 27.5635Z" fill="white"/>
<path d="M14.2085 8.83594H9.23209C8.75615 10.457 8.44036 12.2713 8.36499 14.2082H14.2131V8.83594H14.2085V8.83594Z" fill="white"/>
<path d="M5.00488 7.25736H8.08685C8.68059 5.67865 9.42989 4.29319 10.3394 3.26587C8.20465 4.09528 6.38561 5.51843 5.00488 7.25736Z" fill="white"/>
<path d="M15.0001 26.0602C8.91626 26.0602 3.93994 21.0838 3.93994 15.0001C3.93994 8.91633 8.91626 3.93994 15.0001 3.93994C21.0839 3.93994 26.0602 8.91633 26.0602 15.0001C26.0602 21.0838 21.0839 26.0602 15.0001 26.0602Z" fill="#D8CBE5"/>
<path d="M15.0001 0.777832C7.13968 0.777832 0.777832 7.13968 0.777832 15.0001C0.777832 22.8604 7.13968 29.2223 15.0001 29.2223C22.8604 29.2223 29.2223 22.8604 29.2223 15.0001C29.2223 7.13968 22.8604 0.777832 15.0001 0.777832ZM23.2186 14.2083C23.1809 12.2715 22.9029 10.4949 22.4693 8.83612H26.0649C26.9744 10.4572 27.5257 12.2715 27.6436 14.2083H23.2186ZM27.6012 15.7918C27.4834 17.7286 26.9274 19.5429 26.0225 21.164H22.4269C22.8605 19.5429 23.1385 17.7286 23.1762 15.7918H27.6012ZM21.9132 7.25748C21.3195 5.67877 20.5702 4.29331 19.6607 3.26599C21.753 4.0954 23.572 5.51855 24.9528 7.25748H21.9132ZM15.7918 14.2083V8.83612H20.7682C21.2441 10.4572 21.5599 12.2715 21.6353 14.2083H15.7918ZM21.6352 15.7918C21.5551 17.7286 21.2818 19.5429 20.7681 21.164H15.7917V15.7918H21.6352ZM15.7918 7.25748V2.43665C17.5684 2.87016 19.1518 4.68921 20.2168 7.25748H15.7918ZM15.7918 22.7426H20.2168C19.1518 25.3109 17.5684 27.1299 15.7918 27.5635V22.7426V22.7426ZM19.7031 26.7341C20.6126 25.6691 21.3619 24.3261 21.9556 22.7426H25.0376C23.6145 24.4816 21.7954 25.9047 19.7031 26.7341ZM9.23201 21.164C8.75608 19.5429 8.44029 17.7286 8.36492 15.7918H14.2131V21.164H9.23201ZM14.2083 22.7426V27.5635C12.4317 27.1299 10.8483 25.3109 9.78333 22.7426H14.2083ZM8.36492 14.2083C8.44503 12.2715 8.71832 10.4572 9.23201 8.83612H14.2084V14.2083H8.36492ZM8.08689 7.25748H5.00492C6.38565 5.48086 8.20469 4.0954 10.297 3.26599C9.42993 4.331 8.6382 5.67411 8.08689 7.25748ZM7.57319 8.83612C7.13968 10.4572 6.86158 12.2715 6.8239 14.2083H2.39889C2.51669 12.2715 3.07274 10.4572 3.9776 8.83612H7.57319V8.83612ZM6.78154 15.7918C6.81923 17.7286 7.09726 19.5052 7.53084 21.164H3.93991C3.03039 19.5429 2.47908 17.7286 2.36121 15.7918H6.78154ZM8.08689 22.7426C8.68063 24.3213 9.42993 25.7068 10.3395 26.7341C8.24712 25.9047 6.39038 24.4816 5.04735 22.7426H8.08689ZM14.2083 7.25748H9.78333C10.8483 4.68921 12.4317 2.87016 14.2083 2.43665V7.25748Z" fill="#3F4145"/>
</svg>
