<svg width="30" height="30" viewBox="0 0 30 30" fill="none" xmlns="http://www.w3.org/2000/svg">
<path d="M18.6471 25.0319L11.2698 27.3184V11.9333L13.0436 11.3828C14.662 15.0903 17.8944 19.5459 18.6048 20.4962V25.0318H18.6471V25.0319Z" fill="#D8CBE5"/>
<path d="M19.3575 2.3916C16.2428 2.3916 13.7163 4.91813 13.7163 8.0328C13.7163 10.437 17.3438 16.0406 19.3575 18.84C21.3712 16.0406 24.9987 10.437 24.9987 8.0328C24.994 4.91813 22.4722 2.3916 19.3575 2.3916Z" fill="#D8CBE5"/>
<path d="M19.3575 5.54858C17.979 5.54858 16.8733 6.65425 16.8733 8.03276C16.8733 9.41127 17.979 10.5169 19.3575 10.5169C20.736 10.5169 21.8417 9.41127 21.8417 8.03276C21.8417 6.65425 20.736 5.54858 19.3575 5.54858Z" fill="white"/>
<path d="M23.4178 8.03286C23.4178 5.78391 21.6016 3.96777 19.3527 3.96777C17.1037 3.96777 15.2876 5.78391 15.2876 8.03286C15.2876 10.2818 17.1037 12.0979 19.3527 12.0979C21.6016 12.0979 23.4178 10.2818 23.4178 8.03286ZM16.8686 8.03286C16.8686 6.65435 17.9742 5.54869 19.3528 5.54869C20.7313 5.54869 21.8369 6.65435 21.8369 8.03286C21.8369 9.41137 20.7313 10.517 19.3528 10.517C18.0165 10.517 16.8686 9.4161 16.8686 8.03286Z" fill="#3F4145"/>
<path d="M20.2231 20.3409V25.074L27.6005 27.3606V11.9756L25.6667 11.3828C24.1658 14.855 21.1688 19.0377 20.2231 20.3409Z" fill="white"/>
<path d="M2.354 25.0318L9.73135 27.3607V11.9756L2.354 9.68896V25.0318Z" fill="#F2EFF4"/>
<path d="M28.6262 10.6346L26.2173 9.88652C26.4525 9.17605 26.5702 8.54564 26.5702 7.99514C26.5702 4.01011 23.3379 0.777832 19.3529 0.777832C15.3678 0.777832 12.1355 4.01011 12.1355 7.99521C12.1355 8.54571 12.2531 9.21848 12.4883 9.92895L10.4747 10.5594L1.80351 7.83524C1.29071 7.67527 0.777832 8.07046 0.777832 8.58334V25.6246C0.777832 25.9774 1.01305 26.2551 1.32833 26.3727L10.2442 29.1768C10.3618 29.2144 10.597 29.2568 10.7193 29.1768L19.3952 26.4573L28.1134 29.1767C28.6262 29.3367 29.1391 28.9792 29.1391 28.4286V11.3875C29.1767 11.0722 28.9415 10.757 28.6262 10.6346ZM18.6471 25.0317L11.2698 27.3183V11.9332L13.0435 11.3827C14.662 15.0902 17.8944 19.5458 18.6048 20.4961V25.0317H18.6471V25.0317ZM27.6006 27.3607L20.2232 25.0741V20.3409C21.1689 19.0376 24.1283 14.8973 25.6668 11.3875L27.6006 11.9802V27.3607ZM19.3576 2.39164C22.4722 2.39164 24.9988 4.91817 24.9988 8.03284C24.9988 10.437 21.3713 16.0406 19.3576 18.8401C17.3439 16.003 13.7164 10.4418 13.7164 8.03284C13.7163 4.91817 16.2805 2.39164 19.3576 2.39164ZM9.73129 27.3607L2.35394 25.0317V9.68893L9.73129 11.9755V27.3607Z" fill="#3F4145"/>
</svg>
